<?xml version="1.0" encoding="utf-8"?>
<!-- Generator: Adobe Illustrator 22.0.0, SVG Export Plug-In . SVG Version: 6.00 Build 0)  -->
<svg version="1.1" id="visual" xmlns="http://www.w3.org/2000/svg" xmlns:xlink="http://www.w3.org/1999/xlink" x="0px" y="0px"
	 viewBox="0 0 900 600" style="enable-background:new 0 0 900 600;" xml:space="preserve">
<style type="text/css">
	.st0{fill:#DFDFDF;stroke:#DFDFDF;stroke-width:0.4998;stroke-linejoin:bevel;}
	.st1{fill:#EFEFEF;stroke:#EFEFEF;stroke-width:0.4998;stroke-linejoin:bevel;}
	.st2{fill:#E3E3E3;stroke:#E3E3E3;stroke-width:0.4998;stroke-linejoin:bevel;}
	.st3{fill:#EBEBEB;stroke:#EBEBEB;stroke-width:0.4998;stroke-linejoin:bevel;}
	.st4{fill:#E7E7E7;stroke:#E7E7E7;stroke-width:0.4998;stroke-linejoin:bevel;}
	.st5{fill:#FFFFFF;stroke:#FFFFFF;stroke-width:0.4998;stroke-linejoin:bevel;}
	.st6{fill:#DBDBDB;stroke:#DBDBDB;stroke-width:0.4998;stroke-linejoin:bevel;}
	.st7{fill:#F7F7F7;stroke:#F7F7F7;stroke-width:0.4998;stroke-linejoin:bevel;}
	.st8{fill:#F3F3F3;stroke:#F3F3F3;stroke-width:0.4998;stroke-linejoin:bevel;}
	.st9{fill:#D7D7D7;stroke:#D7D7D7;stroke-width:0.4998;stroke-linejoin:bevel;}
	.st10{fill:#FBFBFB;stroke:#FBFBFB;stroke-width:0.4998;stroke-linejoin:bevel;}
</style>
<g>
	<g>
		<g>
			<path class="st0" d="M656.6,460.9l31,23l18-37L656.6,460.9z"/>
			<path class="st1" d="M687.6,483.8l42.5-30.5l-24.5-6.5L687.6,483.8z"/>
			<path class="st1" d="M656.6,460.9l-20.5,33l51.5-10L656.6,460.9z"/>
			<path class="st1" d="M730.1,453.4l-27-52l2.5,45.5L730.1,453.4z"/>
			<path class="st2" d="M705.6,446.9l-45-54.5l-4,68.5L705.6,446.9z"/>
			<path class="st3" d="M703.1,401.4l-42.5-9l45,54.5L703.1,401.4z"/>
			<path class="st2" d="M656.6,460.9l-52-8l31.5,41L656.6,460.9z"/>
			<path class="st4" d="M660.6,392.4l-56,60.5l52,8L660.6,392.4z"/>
			<path class="st0" d="M638.6,552.8l76-20l-27-49L638.6,552.8z"/>
			<path class="st5" d="M687.6,483.8l73.5,8.5l-31-39L687.6,483.8z"/>
			<path class="st5" d="M714.6,532.8l46.5-40.5l-73.5-8.5L714.6,532.8z"/>
			<path class="st6" d="M730.1,453.4l1-71.5l-28,19.5L730.1,453.4z"/>
			<path class="st6" d="M604.6,452.9l-6.5,32.5l38,8.5L604.6,452.9z"/>
			<path class="st7" d="M636.1,493.8l2.5,59l49-69L636.1,493.8z"/>
			<path class="st0" d="M767.1,364.9l-36,17l76.5,28L767.1,364.9z"/>
			<path class="st1" d="M703.1,401.4l-38-49.5l-4.5,40.5L703.1,401.4z"/>
			<path class="st6" d="M612.1,559.3l26.5-6.5l-2.5-59L612.1,559.3z"/>
			<path class="st2" d="M731.1,381.9l-66-30l38,49.5L731.1,381.9z"/>
			<path class="st0" d="M660.6,392.4l-72.5,9.5l16.5,51L660.6,392.4z"/>
			<path class="st4" d="M597.1,354.9l-9,47l72.5-9.5L597.1,354.9z"/>
			<path class="st1" d="M604.6,452.9l-51.5,3l45,29.5L604.6,452.9z"/>
			<path class="st6" d="M714.6,532.8l54-0.5l-7.5-40L714.6,532.8z"/>
			<path class="st8" d="M745.6,599.8l23-67.5l-54,0.5L745.6,599.8z"/>
			<path class="st7" d="M598.1,485.3l14,74l24-65.5L598.1,485.3z"/>
			<path class="st5" d="M638.6,552.8l21.5,47l54.5-67L638.6,552.8z"/>
			<path class="st8" d="M807.5,409.9l-76.5-28l-1,71.5L807.5,409.9z"/>
			<path class="st1" d="M731.1,381.9l-41-52l-25,22L731.1,381.9z"/>
			<path class="st2" d="M806,432.9l-76,20.5l31,39L806,432.9z"/>
			<path class="st6" d="M808.5,510.3l-2.5-77.5l-45,59.5L808.5,510.3z"/>
			<path class="st1" d="M735.1,299.9l-45,30l41,52L735.1,299.9z"/>
			<path class="st9" d="M665.1,351.9l-68,3l63.5,37.5L665.1,351.9z"/>
			<path class="st7" d="M588.1,401.9l-35,54l51.5-3L588.1,401.9z"/>
			<path class="st5" d="M598.1,485.3l-44,33.5l58,40.5L598.1,485.3z"/>
			<path class="st6" d="M632.6,299.9l-35.5,55l68-3L632.6,299.9z"/>
			<path class="st0" d="M588.1,401.9l-40-18.5l5,72.5L588.1,401.9z"/>
			<path class="st8" d="M806,432.9l1.5-23l-77.5,43.5L806,432.9z"/>
			<path class="st8" d="M768.6,532.3l40-22l-47.5-18L768.6,532.3z"/>
			<path class="st7" d="M806,432.9l51.5-16.5l-50-6.5L806,432.9z"/>
			<path class="st5" d="M553.2,455.9l1,63l44-33.5L553.2,455.9z"/>
			<path class="st7" d="M585.6,599.8h74.5l-48-40.5L585.6,599.8z"/>
			<path class="st6" d="M612.1,559.3l48,40.5l-21.5-47L612.1,559.3z"/>
			<path class="st10" d="M768.6,532.3l34.5,14.5l5.5-36.5L768.6,532.3z"/>
			<path class="st10" d="M660.1,599.8h47.5l7-67L660.1,599.8z"/>
			<path class="st6" d="M783.1,599.8l20-53l-34.5-14.5L783.1,599.8z"/>
			<path class="st4" d="M595.1,299.9l-27.5,61l29.5-6L595.1,299.9z"/>
			<path class="st3" d="M597.1,354.9l-29.5,6l20.5,41L597.1,354.9z"/>
			<path class="st0" d="M567.7,360.9l-19.5,22.5l40,18.5L567.7,360.9z"/>
			<path class="st9" d="M553.2,455.9l-41.5,60l42.5,3L553.2,455.9z"/>
			<path class="st9" d="M707.6,599.8h38l-31-67L707.6,599.8z"/>
			<path class="st8" d="M807.5,409.9l-13.5-63l-27,18L807.5,409.9z"/>
			<path class="st9" d="M735.1,299.9h-36.5l-8.5,30L735.1,299.9z"/>
			<path class="st4" d="M735.1,299.9l-4,82l36-17L735.1,299.9z"/>
			<path class="st0" d="M690.1,329.9l-57.5-30l32.5,52L690.1,329.9z"/>
			<path class="st3" d="M698.6,299.9h-66l57.5,30L698.6,299.9z"/>
			<path class="st1" d="M794,346.9l-59-47l32,65L794,346.9z"/>
			<path class="st8" d="M852,540.8l-6-47.5l-37.5,17L852,540.8z"/>
			<path class="st10" d="M808.5,510.3l37.5-17l-40-60.5L808.5,510.3z"/>
			<path class="st10" d="M807.5,409.9l45.5-72.5l-59,9.5L807.5,409.9z"/>
			<path class="st7" d="M538.2,561.3l47.5,38.5l26.5-40.5L538.2,561.3z"/>
			<path class="st1" d="M745.6,599.8h37.5l-14.5-67.5L745.6,599.8z"/>
			<path class="st7" d="M803,546.8l49-6l-43.5-30.5L803,546.8z"/>
			<path class="st3" d="M502.7,356.4l10,58l35.5-31L502.7,356.4z"/>
			<path class="st0" d="M548.2,383.4l-35.5,31l40.5,41.5L548.2,383.4z"/>
			<path class="st1" d="M554.2,518.8l-16,42.5l74-2L554.2,518.8z"/>
			<path class="st10" d="M511.7,515.8l26.5,45.5l16-42.5L511.7,515.8z"/>
			<path class="st1" d="M868.5,459.4l-11-43L806,432.9L868.5,459.4z"/>
			<path class="st0" d="M483.7,438.4l28,77.5l41.5-60L483.7,438.4z"/>
			<path class="st8" d="M632.6,299.9h-37.5l2,55L632.6,299.9z"/>
			<path class="st10" d="M567.7,360.9l-65-4.5l45.5,27L567.7,360.9z"/>
			<path class="st7" d="M900,450.9l-31.5,8.5l31.5,59V450.9z"/>
			<path class="st3" d="M846,493.3l22.5-34L806,432.9L846,493.3z"/>
			<path class="st0" d="M863,599.8l-11-59l-49,6L863,599.8z"/>
			<path class="st5" d="M450.2,383.4l33.5,55l29-24L450.2,383.4z"/>
			<path class="st7" d="M512.7,414.4l-29,24l69.5,17.5L512.7,414.4z"/>
			<path class="st9" d="M853,337.4l-42.5-37.5l-16.5,47L853,337.4z"/>
			<path class="st3" d="M794,346.9l16.5-47h-75.5L794,346.9z"/>
			<path class="st2" d="M538.2,561.3l-5.5,38.5h53L538.2,561.3z"/>
			<path class="st4" d="M491.2,599.8h41.5l5.5-38.5L491.2,599.8z"/>
			<path class="st8" d="M489.2,548.8l49,12.5l-26.5-45.5L489.2,548.8z"/>
			<path class="st2" d="M534.7,299.9l-32,56.5l65,4.5L534.7,299.9z"/>
			<path class="st2" d="M857.5,416.4l-4.5-79l-45.5,72.5L857.5,416.4z"/>
			<path class="st4" d="M900,390.9l-47-53.5l4.5,79L900,390.9z"/>
			<path class="st3" d="M450.2,481.9l39,67l22.5-33L450.2,481.9z"/>
			<path class="st7" d="M595.1,299.9h-60.5l33,61L595.1,299.9z"/>
			<path class="st0" d="M900,518.3l-31.5-59l-22.5,34L900,518.3z"/>
			<path class="st8" d="M868.5,459.4l31.5-8.5l-42.5-34.5L868.5,459.4z"/>
			<path class="st1" d="M852,540.8l48-22.5l-54-25L852,540.8z"/>
			<path class="st8" d="M900,531.8v-13.5l-48,22.5L900,531.8z"/>
			<path class="st2" d="M900,299.9h-54.5l7.5,37.5L900,299.9z"/>
			<path class="st4" d="M853,337.4l-7.5-37.5h-35L853,337.4z"/>
			<path class="st1" d="M900,450.9v-60l-42.5,25.5L900,450.9z"/>
			<path class="st5" d="M783.1,599.8h80l-60-53L783.1,599.8z"/>
			<path class="st8" d="M534.7,299.9h-18l-14,56.5L534.7,299.9z"/>
			<path class="st0" d="M900,599.8v-68l-48,9L900,599.8z"/>
			<path class="st10" d="M450.2,383.4v58.5l33.5-3.5L450.2,383.4z"/>
			<path class="st5" d="M483.7,438.4l-33.5,43.5l61.5,34L483.7,438.4z"/>
			<path class="st8" d="M450.2,383.4l62.5,31l-10-58L450.2,383.4z"/>
			<path class="st4" d="M450.2,441.9v40l33.5-43.5L450.2,441.9z"/>
			<path class="st0" d="M450.2,565.8l41,34l-2-51L450.2,565.8z"/>
			<path class="st9" d="M489.2,548.8l2,51l47-38.5L489.2,548.8z"/>
			<path class="st9" d="M900,390.9v-37.5l-47-16L900,390.9z"/>
			<path class="st2" d="M450.2,335.9v47.5l52.5-27L450.2,335.9z"/>
			<path class="st6" d="M450.2,481.9v84l39-17L450.2,481.9z"/>
			<path class="st4" d="M863,599.8h37l-48-59L863,599.8z"/>
			<path class="st10" d="M516.7,299.9l-66.5,36l52.5,20.5L516.7,299.9z"/>
			<path class="st1" d="M900,353.4v-53.5l-47,37.5L900,353.4z"/>
			<path class="st0" d="M450.2,565.8v34h41L450.2,565.8z"/>
			<path class="st1" d="M516.7,299.9h-66.5v36L516.7,299.9z"/>
		</g>
		<g>
			<path class="st0" d="M705.6,153l-18-37l-31,23L705.6,153z"/>
			<path class="st1" d="M705.6,153l24.5-6.5L687.6,116L705.6,153z"/>
			<path class="st1" d="M687.6,116l-51.5-10l20.5,33L687.6,116z"/>
			<path class="st1" d="M705.6,153l-2.5,45.5l27-52L705.6,153z"/>
			<path class="st2" d="M656.6,139l4,68.5l45-54.5L656.6,139z"/>
			<path class="st3" d="M705.6,153l-45,54.5l42.5-9L705.6,153z"/>
			<path class="st2" d="M636.1,106l-31.5,41l52-8L636.1,106z"/>
			<path class="st4" d="M656.6,139l-52,8l56,60.5L656.6,139z"/>
			<path class="st0" d="M687.6,116l27-49l-76-20L687.6,116z"/>
			<path class="st5" d="M730.1,146.5l31-39l-73.5,8.5L730.1,146.5z"/>
			<path class="st5" d="M687.6,116l73.5-8.5L714.6,67L687.6,116z"/>
			<path class="st6" d="M703.1,198.4l28,19.5l-1-71.5L703.1,198.4z"/>
			<path class="st6" d="M636.1,106l-38,8.5l6.5,32.5L636.1,106z"/>
			<path class="st7" d="M687.6,116l-49-69l-2.5,59L687.6,116z"/>
			<path class="st0" d="M807.5,189.9l-76.5,28l36,17L807.5,189.9z"/>
			<path class="st1" d="M660.6,207.4l4.5,40.5l38-49.5L660.6,207.4z"/>
			<path class="st6" d="M636.1,106l2.5-59l-26.5-6.5L636.1,106z"/>
			<path class="st2" d="M703.1,198.4l-38,49.5l66-30L703.1,198.4z"/>
			<path class="st0" d="M604.6,147l-16.5,51l72.5,9.5L604.6,147z"/>
			<path class="st4" d="M660.6,207.4l-72.5-9.5l9,47L660.6,207.4z"/>
			<path class="st1" d="M598.1,114.5l-45,29.5l51.5,3L598.1,114.5z"/>
			<path class="st6" d="M761.1,107.5l7.5-40l-54-0.5L761.1,107.5z"/>
			<path class="st8" d="M714.6,67l54,0.5L745.6,0L714.6,67z"/>
			<path class="st7" d="M636.1,106l-24-65.5l-14,74L636.1,106z"/>
			<path class="st5" d="M714.6,67L660.1,0l-21.5,47L714.6,67z"/>
			<path class="st8" d="M730.1,146.5l1,71.5l76.5-28L730.1,146.5z"/>
			<path class="st1" d="M665.1,247.9l25,22l41-52L665.1,247.9z"/>
			<path class="st2" d="M761.1,107.5l-31,39l76,20.5L761.1,107.5z"/>
			<path class="st6" d="M761.1,107.5l45,59.5l2.5-77.5L761.1,107.5z"/>
			<path class="st1" d="M731.1,217.9l-41,52l45,30L731.1,217.9z"/>
			<path class="st9" d="M660.6,207.4l-63.5,37.5l68,3L660.6,207.4z"/>
			<path class="st7" d="M604.6,147l-51.5-3l35,54L604.6,147z"/>
			<path class="st5" d="M612.1,40.5l-58,40.5l44,33.5L612.1,40.5z"/>
			<path class="st6" d="M665.1,247.9l-68-3l35.5,55L665.1,247.9z"/>
			<path class="st0" d="M553.2,144l-5,72.5l40-18.5L553.2,144z"/>
			<path class="st8" d="M730.1,146.5l77.5,43.5l-1.5-23L730.1,146.5z"/>
			<path class="st8" d="M761.1,107.5l47.5-18l-40-22L761.1,107.5z"/>
			<path class="st7" d="M807.5,189.9l50-6.5L806,167L807.5,189.9z"/>
			<path class="st5" d="M598.1,114.5l-44-33.5l-1,63L598.1,114.5z"/>
			<path class="st7" d="M612.1,40.5l48-40.5h-74.5L612.1,40.5z"/>
			<path class="st6" d="M638.6,47l21.5-47l-48,40.5L638.6,47z"/>
			<path class="st10" d="M808.5,89.5L803,53l-34.5,14.5L808.5,89.5z"/>
			<path class="st10" d="M714.6,67l-7-67h-47.5L714.6,67z"/>
			<path class="st6" d="M768.6,67.5L803,53l-20-53L768.6,67.5z"/>
			<path class="st4" d="M597.1,244.9l-29.5-6l27.5,61L597.1,244.9z"/>
			<path class="st3" d="M588.1,197.9l-20.5,41l29.5,6L588.1,197.9z"/>
			<path class="st0" d="M588.1,197.9l-40,18.5l19.5,22.5L588.1,197.9z"/>
			<path class="st9" d="M554.2,81l-42.5,3l41.5,60L554.2,81z"/>
			<path class="st9" d="M714.6,67l31-67h-38L714.6,67z"/>
			<path class="st8" d="M767.1,234.9l27,18l13.5-63L767.1,234.9z"/>
			<path class="st9" d="M690.1,269.9l8.5,30h36.5L690.1,269.9z"/>
			<path class="st4" d="M767.1,234.9l-36-17l4,82L767.1,234.9z"/>
			<path class="st0" d="M665.1,247.9l-32.5,52l57.5-30L665.1,247.9z"/>
			<path class="st3" d="M690.1,269.9l-57.5,30h66L690.1,269.9z"/>
			<path class="st1" d="M767.1,234.9l-32,65l59-47L767.1,234.9z"/>
			<path class="st8" d="M808.5,89.5l37.5,17l6-47.5L808.5,89.5z"/>
			<path class="st10" d="M806,167l40-60.5l-37.5-17L806,167z"/>
			<path class="st10" d="M794,252.9l59,9.5l-45.5-72.5L794,252.9z"/>
			<path class="st7" d="M612.1,40.5L585.6,0l-47.5,38.5L612.1,40.5z"/>
			<path class="st1" d="M768.6,67.5L783.1,0h-37.5L768.6,67.5z"/>
			<path class="st7" d="M808.5,89.5L852,59l-49-6L808.5,89.5z"/>
			<path class="st3" d="M548.2,216.4l-35.5-31l-10,58L548.2,216.4z"/>
			<path class="st0" d="M553.2,144l-40.5,41.5l35.5,31L553.2,144z"/>
			<path class="st1" d="M612.1,40.5l-74-2l16,42.5L612.1,40.5z"/>
			<path class="st10" d="M554.2,81l-16-42.5L511.7,84L554.2,81z"/>
			<path class="st1" d="M806,167l51.5,16.5l11-43L806,167z"/>
			<path class="st0" d="M553.2,144l-41.5-60l-28,77.5L553.2,144z"/>
			<path class="st8" d="M597.1,244.9l-2,55h37.5L597.1,244.9z"/>
			<path class="st10" d="M548.2,216.4l-45.5,27l65-4.5L548.2,216.4z"/>
			<path class="st7" d="M900,81.5l-31.5,59L900,149V81.5z"/>
			<path class="st3" d="M806,167l62.5-26.5l-22.5-34L806,167z"/>
			<path class="st0" d="M803,53l49,6l11-59L803,53z"/>
			<path class="st5" d="M512.7,185.4l-29-24l-33.5,55L512.7,185.4z"/>
			<path class="st7" d="M553.2,144l-69.5,17.5l29,24L553.2,144z"/>
			<path class="st9" d="M794,252.9l16.5,47l42.5-37.5L794,252.9z"/>
			<path class="st3" d="M735.1,299.9h75.5l-16.5-47L735.1,299.9z"/>
			<path class="st2" d="M585.6,0h-53l5.5,38.5L585.6,0z"/>
			<path class="st4" d="M538.2,38.5L532.7,0h-41.5L538.2,38.5z"/>
			<path class="st8" d="M511.7,84l26.5-45.5l-49,12.5L511.7,84z"/>
			<path class="st2" d="M567.7,238.9l-65,4.5l32,56.5L567.7,238.9z"/>
			<path class="st2" d="M807.5,189.9l45.5,72.5l4.5-79L807.5,189.9z"/>
			<path class="st4" d="M857.5,183.4l-4.5,79l47-53.5L857.5,183.4z"/>
			<path class="st3" d="M511.7,84l-22.5-33l-39,67L511.7,84z"/>
			<path class="st7" d="M567.7,238.9l-33,61h60.5L567.7,238.9z"/>
			<path class="st0" d="M846,106.5l22.5,34l31.5-59L846,106.5z"/>
			<path class="st8" d="M857.5,183.4L900,149l-31.5-8.5L857.5,183.4z"/>
			<path class="st1" d="M846,106.5l54-25L852,59L846,106.5z"/>
			<path class="st8" d="M852,59l48,22.5V68L852,59z"/>
			<path class="st2" d="M853,262.4l-7.5,37.5H900L853,262.4z"/>
			<path class="st4" d="M810.5,299.9h35l7.5-37.5L810.5,299.9z"/>
			<path class="st1" d="M857.5,183.4l42.5,25.5v-60L857.5,183.4z"/>
			<path class="st5" d="M803,53l60-53h-80L803,53z"/>
			<path class="st8" d="M502.7,243.4l14,56.5h18L502.7,243.4z"/>
			<path class="st0" d="M852,59l48,9V0L852,59z"/>
			<path class="st10" d="M483.7,161.5l-33.5-3.5v58.5L483.7,161.5z"/>
			<path class="st5" d="M511.7,84l-61.5,34l33.5,43.5L511.7,84z"/>
			<path class="st8" d="M502.7,243.4l10-58l-62.5,31L502.7,243.4z"/>
			<path class="st4" d="M483.7,161.5L450.2,118v40L483.7,161.5z"/>
			<path class="st0" d="M489.2,51l2-51l-41,34L489.2,51z"/>
			<path class="st9" d="M538.2,38.5L491.2,0l-2,51L538.2,38.5z"/>
			<path class="st9" d="M853,262.4l47-16v-37.5L853,262.4z"/>
			<path class="st2" d="M502.7,243.4l-52.5-27v47.5L502.7,243.4z"/>
			<path class="st6" d="M489.2,51l-39-17v84L489.2,51z"/>
			<path class="st4" d="M852,59l48-59h-37L852,59z"/>
			<path class="st10" d="M502.7,243.4l-52.5,20.5l66.5,36L502.7,243.4z"/>
			<path class="st1" d="M853,262.4l47,37.5v-53.5L853,262.4z"/>
			<path class="st0" d="M491.2,0h-41v34L491.2,0z"/>
			<path class="st1" d="M450.2,263.9v36h66.5L450.2,263.9z"/>
		</g>
	</g>
	<g>
		<g>
			<path class="st0" d="M194.4,446.9l18,37l31-23L194.4,446.9z"/>
			<path class="st1" d="M194.4,446.9l-24.5,6.5l42.5,30.5L194.4,446.9z"/>
			<path class="st1" d="M212.4,483.9l51.5,10l-20.5-33L212.4,483.9z"/>
			<path class="st1" d="M194.4,446.9l2.5-45.5l-27,52L194.4,446.9z"/>
			<path class="st2" d="M243.4,460.9l-4-68.5l-45,54.5L243.4,460.9z"/>
			<path class="st3" d="M194.4,446.9l45-54.5l-42.5,9L194.4,446.9z"/>
			<path class="st2" d="M263.9,493.9l31.5-41l-52,8L263.9,493.9z"/>
			<path class="st4" d="M243.4,460.9l52-8l-56-60.5L243.4,460.9z"/>
			<path class="st0" d="M212.4,483.9l-27,49l76,20L212.4,483.9z"/>
			<path class="st5" d="M169.9,453.4l-31,39l73.5-8.5L169.9,453.4z"/>
			<path class="st5" d="M212.4,483.9l-73.5,8.5l46.5,40.5L212.4,483.9z"/>
			<path class="st6" d="M196.9,401.4l-28-19.5l1,71.5L196.9,401.4z"/>
			<path class="st6" d="M263.9,493.9l38-8.5l-6.5-32.5L263.9,493.9z"/>
			<path class="st7" d="M212.4,483.9l49,69l2.5-59L212.4,483.9z"/>
			<path class="st0" d="M92.5,409.9l76.5-28l-36-17L92.5,409.9z"/>
			<path class="st1" d="M239.4,392.4l-4.5-40.5l-38,49.5L239.4,392.4z"/>
			<path class="st6" d="M263.9,493.9l-2.5,59l26.5,6.5L263.9,493.9z"/>
			<path class="st2" d="M196.9,401.4l38-49.5l-66,30L196.9,401.4z"/>
			<path class="st0" d="M295.4,452.9l16.5-51l-72.5-9.5L295.4,452.9z"/>
			<path class="st4" d="M239.4,392.4l72.5,9.5l-9-47L239.4,392.4z"/>
			<path class="st1" d="M301.9,485.4l45-29.5l-51.5-3L301.9,485.4z"/>
			<path class="st6" d="M138.9,492.4l-7.5,40l54,0.5L138.9,492.4z"/>
			<path class="st8" d="M185.4,532.8l-54-0.5l23,67.5L185.4,532.8z"/>
			<path class="st7" d="M263.9,493.9l24,65.5l14-74L263.9,493.9z"/>
			<path class="st5" d="M185.4,532.8l54.5,67l21.5-47L185.4,532.8z"/>
			<path class="st8" d="M169.9,453.4l-1-71.5l-76.5,28L169.9,453.4z"/>
			<path class="st1" d="M234.9,351.9l-25-22l-41,52L234.9,351.9z"/>
			<path class="st2" d="M138.9,492.4l31-39l-76-20.5L138.9,492.4z"/>
			<path class="st6" d="M138.9,492.4l-45-59.5l-2.5,77.5L138.9,492.4z"/>
			<path class="st1" d="M168.9,381.9l41-52l-45-30L168.9,381.9z"/>
			<path class="st9" d="M239.4,392.4l63.5-37.5l-68-3L239.4,392.4z"/>
			<path class="st7" d="M295.4,452.9l51.5,3l-35-54L295.4,452.9z"/>
			<path class="st5" d="M287.9,559.3l58-40.5l-44-33.5L287.9,559.3z"/>
			<path class="st6" d="M234.9,351.9l68,3l-35.5-55L234.9,351.9z"/>
			<path class="st0" d="M346.8,455.9l5-72.5l-40,18.5L346.8,455.9z"/>
			<path class="st8" d="M169.9,453.4l-77.5-43.5l1.5,23L169.9,453.4z"/>
			<path class="st8" d="M138.9,492.4l-47.5,18l40,22L138.9,492.4z"/>
			<path class="st7" d="M92.5,409.9l-50,6.5L94,432.9L92.5,409.9z"/>
			<path class="st5" d="M301.9,485.4l44,33.5l1-63L301.9,485.4z"/>
			<path class="st7" d="M287.9,559.3l-48,40.5h74.5L287.9,559.3z"/>
			<path class="st6" d="M261.4,552.8l-21.5,47l48-40.5L261.4,552.8z"/>
			<path class="st10" d="M91.5,510.4l5.5,36.5l34.5-14.5L91.5,510.4z"/>
			<path class="st10" d="M185.4,532.8l7,67h47.5L185.4,532.8z"/>
			<path class="st6" d="M131.4,532.3L97,546.8l20,53L131.4,532.3z"/>
			<path class="st4" d="M302.9,354.9l29.5,6l-27.5-61L302.9,354.9z"/>
			<path class="st3" d="M311.9,401.9l20.5-41l-29.5-6L311.9,401.9z"/>
			<path class="st0" d="M311.9,401.9l40-18.5l-19.5-22.5L311.9,401.9z"/>
			<path class="st9" d="M345.8,518.9l42.5-3l-41.5-60L345.8,518.9z"/>
			<path class="st9" d="M185.4,532.8l-31,67h38L185.4,532.8z"/>
			<path class="st8" d="M132.9,364.9l-27-18l-13.5,63L132.9,364.9z"/>
			<path class="st9" d="M209.9,329.9l-8.5-30h-36.5L209.9,329.9z"/>
			<path class="st4" d="M132.9,364.9l36,17l-4-82L132.9,364.9z"/>
			<path class="st0" d="M234.9,351.9l32.5-52l-57.5,30L234.9,351.9z"/>
			<path class="st3" d="M209.9,329.9l57.5-30h-66L209.9,329.9z"/>
			<path class="st1" d="M132.9,364.9l32-65l-59,47L132.9,364.9z"/>
			<path class="st8" d="M91.5,510.4l-37.5-17l-6,47.5L91.5,510.4z"/>
			<path class="st10" d="M94,432.9l-40,60.5l37.5,17L94,432.9z"/>
			<path class="st10" d="M106,346.9l-59-9.5l45.5,72.5L106,346.9z"/>
			<path class="st7" d="M287.9,559.3l26.5,40.5l47.5-38.5L287.9,559.3z"/>
			<path class="st1" d="M131.4,532.3l-14.5,67.5h37.5L131.4,532.3z"/>
			<path class="st7" d="M91.5,510.4L48,540.8l49,6L91.5,510.4z"/>
			<path class="st3" d="M351.8,383.4l35.5,31l10-58L351.8,383.4z"/>
			<path class="st0" d="M346.8,455.9l40.5-41.5l-35.5-31L346.8,455.9z"/>
			<path class="st1" d="M287.9,559.3l74,2l-16-42.5L287.9,559.3z"/>
			<path class="st10" d="M345.8,518.9l16,42.5l26.5-45.5L345.8,518.9z"/>
			<path class="st1" d="M94,432.9l-51.5-16.5l-11,43L94,432.9z"/>
			<path class="st0" d="M346.8,455.9l41.5,60l28-77.5L346.8,455.9z"/>
			<path class="st8" d="M302.9,354.9l2-55h-37.5L302.9,354.9z"/>
			<path class="st10" d="M351.8,383.4l45.5-27l-65,4.5L351.8,383.4z"/>
			<path class="st7" d="M0,518.4l31.5-59L0,450.9L0,518.4z"/>
			<path class="st3" d="M94,432.9l-62.5,26.5l22.5,34L94,432.9z"/>
			<path class="st0" d="M97,546.8l-49-6l-11,59L97,546.8z"/>
			<path class="st5" d="M387.3,414.4l29,24l33.5-55L387.3,414.4z"/>
			<path class="st7" d="M346.8,455.9l69.5-17.5l-29-24L346.8,455.9z"/>
			<path class="st9" d="M106,346.9l-16.5-47L47,337.4L106,346.9z"/>
			<path class="st3" d="M164.9,300H89.5l16.5,47L164.9,300z"/>
			<path class="st2" d="M314.4,599.8h53l-5.5-38.5L314.4,599.8z"/>
			<path class="st4" d="M361.8,561.3l5.5,38.5h41.5L361.8,561.3z"/>
			<path class="st8" d="M388.3,515.9l-26.5,45.5l49-12.5L388.3,515.9z"/>
			<path class="st2" d="M332.3,360.9l65-4.5l-32-56.5L332.3,360.9z"/>
			<path class="st2" d="M92.5,409.9L47,337.4l-4.5,79L92.5,409.9z"/>
			<path class="st4" d="M42.5,416.4l4.5-79L0,390.9L42.5,416.4z"/>
			<path class="st3" d="M388.3,515.9l22.5,33l39-67L388.3,515.9z"/>
			<path class="st7" d="M332.3,360.9l33-61h-60.5L332.3,360.9z"/>
			<path class="st0" d="M54,493.4l-22.5-34L0,518.4L54,493.4z"/>
			<path class="st8" d="M42.5,416.4L0,450.9l31.5,8.5L42.5,416.4z"/>
			<path class="st1" d="M54,493.4l-54,25l48,22.5L54,493.4z"/>
			<path class="st8" d="M48,540.8L0,518.4l0,13.5L48,540.8z"/>
			<path class="st2" d="M47,337.4l7.5-37.5H0L47,337.4z"/>
			<path class="st4" d="M89.5,300h-35L47,337.4L89.5,300z"/>
			<path class="st1" d="M42.5,416.4L0,390.9l0,60L42.5,416.4z"/>
			<path class="st5" d="M97,546.8l-60,53h80L97,546.8z"/>
			<path class="st8" d="M397.3,356.4l-14-56.5h-18L397.3,356.4z"/>
			<path class="st0" d="M48,540.8l-48-9l0,68L48,540.8z"/>
			<path class="st10" d="M416.3,438.4l33.5,3.5v-58.5L416.3,438.4z"/>
			<path class="st5" d="M388.3,515.9l61.5-34l-33.5-43.5L388.3,515.9z"/>
			<path class="st8" d="M397.3,356.4l-10,58l62.5-31L397.3,356.4z"/>
			<path class="st4" d="M416.3,438.4l33.5,43.5v-40L416.3,438.4z"/>
			<path class="st0" d="M410.8,548.8l-2,51l41-34L410.8,548.8z"/>
			<path class="st9" d="M361.8,561.3l47,38.5l2-51L361.8,561.3z"/>
			<path class="st9" d="M47,337.4l-47,16l0,37.5L47,337.4z"/>
			<path class="st2" d="M397.3,356.4l52.5,27v-47.5L397.3,356.4z"/>
			<path class="st6" d="M410.8,548.8l39,17v-84L410.8,548.8z"/>
			<path class="st4" d="M48,540.8l-48,59h37L48,540.8z"/>
			<path class="st10" d="M397.3,356.4l52.5-20.5l-66.5-36L397.3,356.4z"/>
			<path class="st1" d="M47,337.4L0,300l0,53.5L47,337.4z"/>
			<path class="st0" d="M408.8,599.8h41v-34L408.8,599.8z"/>
			<path class="st1" d="M449.8,335.9v-36h-66.5L449.8,335.9z"/>
		</g>
		<g>
			<path class="st0" d="M243.4,139l-31-23l-18,37L243.4,139z"/>
			<path class="st1" d="M212.4,116l-42.5,30.5l24.5,6.5L212.4,116z"/>
			<path class="st1" d="M243.4,139l20.5-33l-51.5,10L243.4,139z"/>
			<path class="st1" d="M169.9,146.5l27,52l-2.5-45.5L169.9,146.5z"/>
			<path class="st2" d="M194.4,153l45,54.5l4-68.5L194.4,153z"/>
			<path class="st3" d="M196.9,198.5l42.5,9l-45-54.5L196.9,198.5z"/>
			<path class="st2" d="M243.4,139l52,8l-31.5-41L243.4,139z"/>
			<path class="st4" d="M239.4,207.5l56-60.5l-52-8L239.4,207.5z"/>
			<path class="st0" d="M261.4,47l-76,20l27,49L261.4,47z"/>
			<path class="st5" d="M212.4,116l-73.5-8.5l31,39L212.4,116z"/>
			<path class="st5" d="M185.4,67l-46.5,40.5l73.5,8.5L185.4,67z"/>
			<path class="st6" d="M169.9,146.5l-1,71.5l28-19.5L169.9,146.5z"/>
			<path class="st6" d="M295.4,147l6.5-32.5l-38-8.5L295.4,147z"/>
			<path class="st7" d="M263.9,106l-2.5-59l-49,69L263.9,106z"/>
			<path class="st0" d="M132.9,234.9l36-17l-76.5-28L132.9,234.9z"/>
			<path class="st1" d="M196.9,198.5l38,49.5l4.5-40.5L196.9,198.5z"/>
			<path class="st6" d="M287.9,40.5L261.4,47l2.5,59L287.9,40.5z"/>
			<path class="st2" d="M168.9,218l66,30l-38-49.5L168.9,218z"/>
			<path class="st0" d="M239.4,207.5l72.5-9.5l-16.5-51L239.4,207.5z"/>
			<path class="st4" d="M302.9,244.9l9-47l-72.5,9.5L302.9,244.9z"/>
			<path class="st1" d="M295.4,147l51.5-3l-45-29.5L295.4,147z"/>
			<path class="st6" d="M185.4,67l-54,0.5l7.5,40L185.4,67z"/>
			<path class="st8" d="M154.4,0.1l-23,67.5l54-0.5L154.4,0.1z"/>
			<path class="st7" d="M301.9,114.5l-14-74l-24,65.5L301.9,114.5z"/>
			<path class="st5" d="M261.4,47l-21.5-47l-54.5,67L261.4,47z"/>
			<path class="st8" d="M92.5,190l76.5,28l1-71.5L92.5,190z"/>
			<path class="st1" d="M168.9,218l41,52l25-22L168.9,218z"/>
			<path class="st2" d="M94,167l76-20.5l-31-39L94,167z"/>
			<path class="st6" d="M91.5,89.5L94,167l45-59.5L91.5,89.5z"/>
			<path class="st1" d="M164.9,299.9l45-30l-41-52L164.9,299.9z"/>
			<path class="st9" d="M234.9,247.9l68-3l-63.5-37.5L234.9,247.9z"/>
			<path class="st7" d="M311.9,198l35-54l-51.5,3L311.9,198z"/>
			<path class="st5" d="M301.9,114.5l44-33.5l-58-40.5L301.9,114.5z"/>
			<path class="st6" d="M267.4,299.9l35.5-55l-68,3L267.4,299.9z"/>
			<path class="st0" d="M311.9,198l40,18.5l-5-72.5L311.9,198z"/>
			<path class="st8" d="M94,167l-1.5,23l77.5-43.5L94,167z"/>
			<path class="st8" d="M131.4,67.5l-40,22l47.5,18L131.4,67.5z"/>
			<path class="st7" d="M94,167l-51.5,16.5l50,6.5L94,167z"/>
			<path class="st5" d="M346.8,144l-1-63l-44,33.5L346.8,144z"/>
			<path class="st7" d="M314.4,0.1l-74.5,0l48,40.5L314.4,0.1z"/>
			<path class="st6" d="M287.9,40.5l-48-40.5l21.5,47L287.9,40.5z"/>
			<path class="st10" d="M131.4,67.5L97,53l-5.5,36.5L131.4,67.5z"/>
			<path class="st10" d="M239.9,0.1l-47.5,0l-7,67L239.9,0.1z"/>
			<path class="st6" d="M116.9,0.1L97,53l34.5,14.5L116.9,0.1z"/>
			<path class="st4" d="M304.9,299.9l27.5-61l-29.5,6L304.9,299.9z"/>
			<path class="st3" d="M302.9,244.9l29.5-6l-20.5-41L302.9,244.9z"/>
			<path class="st0" d="M332.3,238.9l19.5-22.5l-40-18.5L332.3,238.9z"/>
			<path class="st9" d="M346.8,144l41.5-60l-42.5-3L346.8,144z"/>
			<path class="st9" d="M192.4,0.1h-38l31,67L192.4,0.1z"/>
			<path class="st8" d="M92.5,190l13.5,63l27-18L92.5,190z"/>
			<path class="st9" d="M164.9,299.9h36.5l8.5-30L164.9,299.9z"/>
			<path class="st4" d="M164.9,299.9l4-82l-36,17L164.9,299.9z"/>
			<path class="st0" d="M209.9,269.9l57.5,30l-32.5-52L209.9,269.9z"/>
			<path class="st3" d="M201.4,299.9h66l-57.5-30L201.4,299.9z"/>
			<path class="st1" d="M106,252.9l59,47l-32-65L106,252.9z"/>
			<path class="st8" d="M48,59l6,47.5l37.5-17L48,59z"/>
			<path class="st10" d="M91.5,89.5l-37.5,17L94,167L91.5,89.5z"/>
			<path class="st10" d="M92.5,190L47,262.4l59-9.5L92.5,190z"/>
			<path class="st7" d="M361.8,38.5L314.4,0.1l-26.5,40.5L361.8,38.5z"/>
			<path class="st1" d="M154.4,0.1l-37.5,0l14.5,67.5L154.4,0.1z"/>
			<path class="st7" d="M97,53l-49,6l43.5,30.5L97,53z"/>
			<path class="st3" d="M397.3,243.4l-10-58l-35.5,31L397.3,243.4z"/>
			<path class="st0" d="M351.8,216.5l35.5-31L346.8,144L351.8,216.5z"/>
			<path class="st1" d="M345.8,81l16-42.5l-74,2L345.8,81z"/>
			<path class="st10" d="M388.3,84l-26.5-45.5l-16,42.5L388.3,84z"/>
			<path class="st1" d="M31.5,140.5l11,43L94,167L31.5,140.5z"/>
			<path class="st0" d="M416.3,161.5l-28-77.5l-41.5,60L416.3,161.5z"/>
			<path class="st8" d="M267.4,299.9h37.5l-2-55L267.4,299.9z"/>
			<path class="st10" d="M332.3,238.9l65,4.5l-45.5-27L332.3,238.9z"/>
			<path class="st7" d="M0,149l31.5-8.5L0,81.5L0,149z"/>
			<path class="st3" d="M54,106.5l-22.5,34L94,167L54,106.5z"/>
			<path class="st0" d="M37,0.1l11,59l49-6L37,0.1z"/>
			<path class="st5" d="M449.8,216.5l-33.5-55l-29,24L449.8,216.5z"/>
			<path class="st7" d="M387.3,185.5l29-24L346.8,144L387.3,185.5z"/>
			<path class="st9" d="M47,262.4l42.5,37.5l16.5-47L47,262.4z"/>
			<path class="st3" d="M106,252.9l-16.5,47h75.5L106,252.9z"/>
			<path class="st2" d="M361.8,38.5l5.5-38.5h-53L361.8,38.5z"/>
			<path class="st4" d="M408.8,0.1l-41.5,0l-5.5,38.5L408.8,0.1z"/>
			<path class="st8" d="M410.8,51l-49-12.5L388.3,84L410.8,51z"/>
			<path class="st2" d="M365.3,299.9l32-56.5l-65-4.5L365.3,299.9z"/>
			<path class="st2" d="M42.5,183.5l4.5,79L92.5,190L42.5,183.5z"/>
			<path class="st4" d="M0,209l47,53.5l-4.5-79L0,209z"/>
			<path class="st3" d="M449.8,118l-39-67l-22.5,33L449.8,118z"/>
			<path class="st7" d="M304.9,299.9h60.5l-33-61L304.9,299.9z"/>
			<path class="st0" d="M0,81.5l31.5,59l22.5-34L0,81.5z"/>
			<path class="st8" d="M31.5,140.5L0,149l42.5,34.5L31.5,140.5z"/>
			<path class="st1" d="M48,59L0,81.5l54,25L48,59z"/>
			<path class="st8" d="M0,68l0,13.5L48,59L0,68z"/>
			<path class="st2" d="M0,299.9h54.5L47,262.4L0,299.9z"/>
			<path class="st4" d="M47,262.4l7.5,37.5h35L47,262.4z"/>
			<path class="st1" d="M0,149l0,60l42.5-25.5L0,149z"/>
			<path class="st5" d="M116.9,0.1l-80,0l60,53L116.9,0.1z"/>
			<path class="st8" d="M365.3,299.9h18l14-56.5L365.3,299.9z"/>
			<path class="st0" d="M0,0.1l0,68l48-9L0,0.1z"/>
			<path class="st10" d="M449.8,216.5V158l-33.5,3.5L449.8,216.5z"/>
			<path class="st5" d="M416.3,161.5l33.5-43.5l-61.5-34L416.3,161.5z"/>
			<path class="st8" d="M449.8,216.5l-62.5-31l10,58L449.8,216.5z"/>
			<path class="st4" d="M449.8,158v-40l-33.5,43.5L449.8,158z"/>
			<path class="st0" d="M449.8,34l-41-34l2,51L449.8,34z"/>
			<path class="st9" d="M410.8,51l-2-51l-47,38.5L410.8,51z"/>
			<path class="st9" d="M0,209l0,37.5l47,16L0,209z"/>
			<path class="st2" d="M449.8,263.9v-47.5l-52.5,27L449.8,263.9z"/>
			<path class="st6" d="M449.8,118V34l-39,17L449.8,118z"/>
			<path class="st4" d="M37,0.1H0l48,59L37,0.1z"/>
			<path class="st10" d="M383.3,299.9l66.5-36l-52.5-20.5L383.3,299.9z"/>
			<path class="st1" d="M0,246.4l0,53.5l47-37.5L0,246.4z"/>
			<path class="st0" d="M449.8,34v-34h-41L449.8,34z"/>
			<path class="st1" d="M383.3,299.9h66.5v-36L383.3,299.9z"/>
		</g>
	</g>
</g>
</svg>
