<?xml version="1.0" encoding="utf-8"?>
<!-- Generator: Adobe Illustrator 22.0.0, SVG Export Plug-In . SVG Version: 6.00 Build 0)  -->
<svg version="1.1" id="Layer_1" xmlns="http://www.w3.org/2000/svg" xmlns:xlink="http://www.w3.org/1999/xlink" x="0px" y="0px"
	 viewBox="0 0 1440 474.8" style="enable-background:new 0 0 1440 474.8;" xml:space="preserve">
<g>
	<path d="M1359.5,261.7c-80-21.7-240-63.7-400-58.7s-320,59-480,85.3c-160,26.7-320,26.7-400,26.7h-80V52H-1v352h80
		c80,0,240,0,400-26.7C639,351,799,297,959,292s320,37,400,58.7l80,21.3v-89.1L1359.5,261.7z"/>
	<path d="M1360,0c-80,0-240,0-400,0S640,0,480,0S160,0,80,0H0v13h0.5v289h80c80,0,240,0,400-26.7c160-26.3,320-80.3,480-85.3
		s320,37,400,58.7l79,21v0.1l0.5,0.1V0H1360z"/>
</g>
</svg>
