<svg id="visual" viewBox="0 0 900 600" width="900" height="600" xmlns="http://www.w3.org/2000/svg" xmlns:xlink="http://www.w3.org/1999/xlink" version="1.1"><g stroke-width="1" stroke-linejoin="bevel"><path d="M413 322L475 368L511 294Z" fill="#002739" stroke="#002739"></path><path d="M475 368L560 307L511 294Z" fill="#003148" stroke="#003148"></path><path d="M413 322L372 388L475 368Z" fill="#003148" stroke="#003148"></path><path d="M560 307L506 203L511 294Z" fill="#003148" stroke="#003148"></path><path d="M511 294L421 185L413 322Z" fill="#00293d" stroke="#00293d"></path><path d="M506 203L421 185L511 294Z" fill="#002e44" stroke="#002e44"></path><path d="M413 322L309 306L372 388Z" fill="#00293d" stroke="#00293d"></path><path d="M421 185L309 306L413 322Z" fill="#002c40" stroke="#002c40"></path><path d="M377 506L529 466L475 368Z" fill="#002739" stroke="#002739"></path><path d="M475 368L622 385L560 307Z" fill="#003b57" stroke="#003b57"></path><path d="M529 466L622 385L475 368Z" fill="#003b57" stroke="#003b57"></path><path d="M560 307L562 164L506 203Z" fill="#002436" stroke="#002436"></path><path d="M309 306L296 371L372 388Z" fill="#002436" stroke="#002436"></path><path d="M372 388L377 506L475 368Z" fill="#00364f" stroke="#00364f"></path><path d="M634 130L562 164L715 220Z" fill="#002739" stroke="#002739"></path><path d="M506 203L430 104L421 185Z" fill="#003148" stroke="#003148"></path><path d="M324 519L377 506L372 388Z" fill="#002436" stroke="#002436"></path><path d="M562 164L430 104L506 203Z" fill="#00293d" stroke="#00293d"></path><path d="M421 185L276 204L309 306Z" fill="#002739" stroke="#002739"></path><path d="M294 110L276 204L421 185Z" fill="#002c40" stroke="#002c40"></path><path d="M309 306L206 312L296 371Z" fill="#003148" stroke="#003148"></path><path d="M529 466L637 465L622 385Z" fill="#002436" stroke="#002436"></path><path d="M591 600L637 465L529 466Z" fill="#00334b" stroke="#00334b"></path><path d="M296 371L324 519L372 388Z" fill="#00364f" stroke="#00364f"></path><path d="M377 506L420 600L529 466Z" fill="#003b57" stroke="#003b57"></path><path d="M715 220L562 164L560 307Z" fill="#00334b" stroke="#00334b"></path><path d="M562 164L480 60L430 104Z" fill="#003148" stroke="#003148"></path><path d="M712 266L560 307L622 385Z" fill="#00293d" stroke="#00293d"></path><path d="M717 421L712 266L622 385Z" fill="#002436" stroke="#002436"></path><path d="M570 0L480 60L562 164Z" fill="#003148" stroke="#003148"></path><path d="M430 104L294 110L421 185Z" fill="#002232" stroke="#002232"></path><path d="M276 204L206 312L309 306Z" fill="#00364f" stroke="#00364f"></path><path d="M296 371L208 438L324 519Z" fill="#003b57" stroke="#003b57"></path><path d="M365 0L294 110L430 104Z" fill="#002436" stroke="#002436"></path><path d="M276 204L196 167L206 312Z" fill="#002739" stroke="#002739"></path><path d="M712 266L715 220L560 307Z" fill="#00334b" stroke="#00334b"></path><path d="M637 465L717 421L622 385Z" fill="#00334b" stroke="#00334b"></path><path d="M712 266L815 233L715 220Z" fill="#00364f" stroke="#00364f"></path><path d="M206 312L208 438L296 371Z" fill="#003b57" stroke="#003b57"></path><path d="M271 600L420 600L324 519Z" fill="#00364f" stroke="#00364f"></path><path d="M324 519L420 600L377 506Z" fill="#002436" stroke="#002436"></path><path d="M637 465L706 494L717 421Z" fill="#003853" stroke="#003853"></path><path d="M420 600L515 600L529 466Z" fill="#003853" stroke="#003853"></path><path d="M666 600L706 494L637 465Z" fill="#002436" stroke="#002436"></path><path d="M290 0L235 122L294 110Z" fill="#002c40" stroke="#002c40"></path><path d="M294 110L235 122L276 204Z" fill="#002e44" stroke="#002e44"></path><path d="M235 122L196 167L276 204Z" fill="#002739" stroke="#002739"></path><path d="M206 312L123 432L208 438Z" fill="#002232" stroke="#002232"></path><path d="M515 600L591 600L529 466Z" fill="#002232" stroke="#002232"></path><path d="M715 220L688 94L634 130Z" fill="#00334b" stroke="#00334b"></path><path d="M570 0L497 0L480 60Z" fill="#002232" stroke="#002232"></path><path d="M570 0L562 164L634 130Z" fill="#002c40" stroke="#002c40"></path><path d="M480 60L365 0L430 104Z" fill="#002739" stroke="#002739"></path><path d="M497 0L365 0L480 60Z" fill="#002e44" stroke="#002e44"></path><path d="M688 94L570 0L634 130Z" fill="#003148" stroke="#003148"></path><path d="M804 482L792 387L717 421Z" fill="#00334b" stroke="#00334b"></path><path d="M717 421L792 387L712 266Z" fill="#003853" stroke="#003853"></path><path d="M715 220L806 75L688 94Z" fill="#003853" stroke="#003853"></path><path d="M176 523L271 600L324 519Z" fill="#00364f" stroke="#00364f"></path><path d="M591 600L666 600L637 465Z" fill="#003148" stroke="#003148"></path><path d="M706 494L804 482L717 421Z" fill="#00364f" stroke="#00364f"></path><path d="M105 113L125 229L196 167Z" fill="#002e44" stroke="#002e44"></path><path d="M196 167L125 229L206 312Z" fill="#002739" stroke="#002739"></path><path d="M208 438L176 523L324 519Z" fill="#003148" stroke="#003148"></path><path d="M123 432L176 523L208 438Z" fill="#003853" stroke="#003853"></path><path d="M837 319L815 233L712 266Z" fill="#003148" stroke="#003148"></path><path d="M67 277L123 432L206 312Z" fill="#002739" stroke="#002739"></path><path d="M365 0L290 0L294 110Z" fill="#00334b" stroke="#00334b"></path><path d="M235 122L105 113L196 167Z" fill="#003853" stroke="#003853"></path><path d="M900 302L837 319L900 437Z" fill="#00364f" stroke="#00364f"></path><path d="M792 387L837 319L712 266Z" fill="#002e44" stroke="#002e44"></path><path d="M826 600L804 482L706 494Z" fill="#002739" stroke="#002739"></path><path d="M0 167L67 277L125 229Z" fill="#003b57" stroke="#003b57"></path><path d="M125 229L67 277L206 312Z" fill="#00364f" stroke="#00364f"></path><path d="M806 75L721 0L688 94Z" fill="#002232" stroke="#002232"></path><path d="M688 94L721 0L570 0Z" fill="#002e44" stroke="#002e44"></path><path d="M176 523L165 600L271 600Z" fill="#00293d" stroke="#00293d"></path><path d="M82 600L165 600L176 523Z" fill="#002c40" stroke="#002c40"></path><path d="M78 498L176 523L123 432Z" fill="#00334b" stroke="#00334b"></path><path d="M169 0L105 113L235 122Z" fill="#00293d" stroke="#00293d"></path><path d="M815 233L806 75L715 220Z" fill="#00293d" stroke="#00293d"></path><path d="M900 182L806 75L815 233Z" fill="#002c40" stroke="#002c40"></path><path d="M0 364L78 498L123 432Z" fill="#002e44" stroke="#002e44"></path><path d="M290 0L169 0L235 122Z" fill="#00364f" stroke="#00364f"></path><path d="M900 437L837 319L792 387Z" fill="#002739" stroke="#002739"></path><path d="M837 319L900 302L815 233Z" fill="#00334b" stroke="#00334b"></path><path d="M804 482L900 437L792 387Z" fill="#003148" stroke="#003148"></path><path d="M900 464L900 437L804 482Z" fill="#00334b" stroke="#00334b"></path><path d="M900 0L791 0L806 75Z" fill="#00293d" stroke="#00293d"></path><path d="M806 75L791 0L721 0Z" fill="#002c40" stroke="#002c40"></path><path d="M900 302L900 182L815 233Z" fill="#003148" stroke="#003148"></path><path d="M666 600L826 600L706 494Z" fill="#003b57" stroke="#003b57"></path><path d="M169 0L133 0L105 113Z" fill="#00334b" stroke="#00334b"></path><path d="M900 600L900 464L804 482Z" fill="#002739" stroke="#002739"></path><path d="M0 167L0 284L67 277Z" fill="#003853" stroke="#003853"></path><path d="M67 277L0 364L123 432Z" fill="#003b57" stroke="#003b57"></path><path d="M0 167L125 229L105 113Z" fill="#00334b" stroke="#00334b"></path><path d="M0 284L0 364L67 277Z" fill="#002c40" stroke="#002c40"></path><path d="M0 532L82 600L78 498Z" fill="#002739" stroke="#002739"></path><path d="M78 498L82 600L176 523Z" fill="#002232" stroke="#002232"></path><path d="M900 182L900 107L806 75Z" fill="#002232" stroke="#002232"></path><path d="M0 72L0 167L105 113Z" fill="#00293d" stroke="#00293d"></path><path d="M0 364L0 532L78 498Z" fill="#002436" stroke="#002436"></path><path d="M826 600L900 600L804 482Z" fill="#002c40" stroke="#002c40"></path><path d="M133 0L0 72L105 113Z" fill="#003853" stroke="#003853"></path><path d="M900 107L900 0L806 75Z" fill="#003148" stroke="#003148"></path><path d="M0 532L0 600L82 600Z" fill="#002739" stroke="#002739"></path><path d="M133 0L0 0L0 72Z" fill="#003148" stroke="#003148"></path></g></svg>